#!OML:ASF H:\GeneralSubjects\Female5\Project 1\Capture day 1\Session 1\Female5.ASF
:FULLY-SPECIFIED
:DEGREES
397
root 4.83535 15.8632 2.59714 -192.592 -60.9625 -161.34
lowerback 9.92767 2.348 6.27753
upperback -7.5724 4.17805 1.24373
thorax -13.6116 1.36489 -3.00626
lowerneck -16.0047 -4.69322 -3.58784
upperneck 37.557 -9.14212 2.72835
head 16.4933 -4.61475 -0.0751335
rclavicle 3.18055e-014 -7.95139e-015
rhumerus -58.552 16.8408 -60.2738
rradius 71.6554
rwrist -12.3446
rhand -25.1712 -11.3051
rfingers 7.12502
rthumb 1.34626 -41.2806
lclavicle 3.18055e-014 -7.95139e-015
lhumerus -65.4564 -12.1372 82.4224
lradius 100.741
lwrist -20.1832
lhand -34.8828 26.2716
lfingers 7.12502
lthumb -8.0317 56.099
rfemur 2.91293 10.4749 35.6636
rtibia 3.46686
rfoot 330.152 -27.3246
rtoes 4.37781
lfemur -19.2465 -4.35886 -12.5673
ltibia 36.7471
lfoot 350.508 12.7429
ltoes -78.7953
398
root 4.71353 15.879 2.70036 -191.83 -62.1007 -162.273
lowerback 9.63431 2.18008 5.09176
upperback -7.71058 3.75169 1.35471
thorax -13.7 1.27846 -2.12594
lowerneck -15.9162 -4.96246 -3.92116
upperneck 38.1985 -9.82488 3.15379
head 16.9046 -4.91126 0.0146528
rclavicle -4.81059e-014 -1.59028e-015
rhumerus -59.9413 16.3992 -61.0926
rradius 70.0341
rwrist -11.6173
rhand -25.3645 -11.5143
rfingers 7.12502
rthumb 1.15954 -41.4909
lclavicle -4.81059e-014 -1.59028e-015
lhumerus -66.093 -12.053 82.8062
lradius 101.227
lwrist -20.3589
lhand -34.4535 25.8573
lfingers 7.12502
lthumb -7.61731 55.7001
rfemur 1.21422 7.96987 33.5249
rtibia 6.86639
rfoot 332.837 -26.1503
rtoes -1.2563
lfemur -16.002 -5.6146 -14.5522
ltibia 31.1349
lfoot 344.363 13.4931
ltoes -74.3378
399
root 4.60866 15.8983 2.8124 -190.534 -63.4105 -163.704
lowerback 9.43042 1.94627 3.67308
upperback -7.8163 3.20458 1.39102
thorax -13.8025 1.15751 -1.17664
lowerneck -15.6926 -5.23872 -4.25699
upperneck 38.6155 -10.5364 3.66883
head 17.1883 -5.20863 0.149749
rclavicle 2.74323e-014 5.56597e-015
rhumerus -61.1912 15.8966 -61.8871
rradius 68.2287
rwrist -10.9212
rhand -25.9141 -12.1726
rfingers 7.12502
rthumb 0.628722 -42.1514
lclavicle 2.74323e-014 5.56597e-015
lhumerus -66.2632 -12.349 83.1741
lradius 101.594
lwrist -20.5583
lhand -34.2911 25.817
lfingers 7.12502
lthumb -7.4606 55.6655
rfemur -1.59801 4.68957 30.8184
rtibia 12.1723
rfoot 336.676 -24.0188
rtoes -5.36622
lfemur -13.4325 -7.35491 -16.7205
ltibia 26.3609
lfoot 337.649 13.6529
ltoes -72.358
400
root 4.52962 15.9242 2.92548 -188.302 -64.8426 -165.945
lowerback 9.15341 1.68982 1.8331
upperback -7.9011 2.55717 1.36915
thorax -13.8284 1.03201 -0.0306257
lowerneck -15.2867 -5.46594 -4.50607
upperneck 38.8375 -11.1358 4.08802
head 17.3077 -5.46484 0.263842
rclavicle -1.02374e-014 -2.18663e-014
rhumerus -62.1637 15.3519 -62.4992
rradius 66.1664
rwrist -10.2636
rhand -26.3211 -12.8085
rfingers 7.12502
rthumb 0.235625 -42.7881
lclavicle -1.02374e-014 -2.18663e-014
lhumerus -65.8648 -13.0447 83.5893
lradius 101.73
lwrist -20.6882
lhand -34.4443 25.8312
lfingers 7.12502
lthumb -7.60841 55.6743
rfemur -5.84498 1.57905 27.6788
rtibia 19.7366
rfoot 341.178 -21.7809
rtoes -6.07088
lfemur -11.7341 -9.44381 -19.1359
ltibia 22.7791
lfoot 337.848 14.0219
ltoes -72.0593
401
root 4.48736 15.9553 3.03667 -186.51 -66.2934 -167.766
lowerback 9.29289 1.36564 0.11284
upperback -7.90397 1.86853 1.46305
thorax -13.9884 0.885573 1.17873
lowerneck -14.9832 -5.65334 -4.61223
upperneck 38.858 -11.597 4.38031
head 17.3134 -5.64903 0.328419
rclavicle 6.15984e-014 -3.97569e-015
rhumerus -62.7058 14.7951 -62.8677
rradius 63.7704
rwrist -9.5352
rhand -26.2204 -12.9958
rfingers 7.12502
rthumb 0.332874 -42.9753
lclavicle 6.15984e-014 -3.97569e-015
lhumerus -64.7518 -14.1881 83.9954
lradius 101.547
lwrist -20.629
lhand -34.7621 26.4861
lfingers 7.12502
lthumb -7.91515 56.3179
rfemur -11.2544 -0.5904 24.9804
rtibia 29.1044
rfoot 347.292 -21.0255
rtoes -6.72869
lfemur -10.8278 -11.3046 -21.1247
ltibia 20.5419
lfoot 337.61 14.1081
ltoes -71.7645
402
root 4.47436 15.9855 3.13942 -185.726 -67.6055 -168.806
lowerback 10.0285 1.03473 -1.35972
upperback -7.79429 1.22675 1.70213
thorax -14.3562 0.754938 2.40457
lowerneck -15.113 -6.07897 -5.00119
upperneck 39.1199 -12.4436 4.79725
head 17.6392 -5.99619 0.390615
rclavicle -3.93097e-014 1.13307e-014
rhumerus -63.116 14.4119 -63.1467
rradius 61.2981
rwrist -8.59219
rhand -25.9463 -13.1724
rfingers 7.12502
rthumb 0.597655 -43.1513
lclavicle -3.93097e-014 1.13307e-014
lhumerus -63.0878 -15.619 84.1225
lradius 101.327
lwrist -20.5286
lhand -34.6829 27.1591
lfingers 7.12502
lthumb -7.83869 56.9938
rfemur -17.2787 -1.78701 22.9269
rtibia 39.7107
rfoot 354.945 -20.3723
rtoes -9.82242
lfemur -10.2432 -12.8497 -22.5478
ltibia 19.2427
lfoot 337.412 14.183
ltoes -71.5417
403
root 4.48289 16.0059 3.22247 -185.554 -68.6754 -169.509
lowerback 11.1371 0.787296 -2.8922
upperback -7.56175 0.676249 2.03343
thorax -14.7931 0.691035 3.76868
lowerneck -15.0208 -6.10624 -4.82015
upperneck 39.0708 -12.6298 4.92947
head 17.6021 -6.03337 0.385816
rclavicle 4.12727e-014 1.799e-014
rhumerus -63.4529 14.2324 -63.4425
rradius 58.8283
rwrist -7.60873
rhand -26.0481 -13.5748
rfingers 7.12502
rthumb 0.499296 -43.5539
lclavicle 4.12727e-014 1.799e-014
lhumerus -61.0339 -17.1858 83.9101
lradius 101.274
lwrist -20.2506
lhand -34.258 26.4893
lfingers 7.12502
lthumb -7.42864 56.3388
rfemur -23.44 -2.17866 21.3555
rtibia 50.9488
rfoot 354.044 -15.0742
rtoes -6.1617
lfemur -9.66528 -14.2374 -23.6402
ltibia 18.5597
lfoot 337.299 14.5495
ltoes -71.461
404
root 4.50376 16.0126 3.27933 -186.472 -69.4509 -169.377
lowerback 12.4292 0.652303 -4.3426
upperback -7.15386 0.276673 2.49036
thorax -15.1233 0.702514 5.21935
lowerneck -14.9238 -6.2681 -4.8879
upperneck 39.1809 -13.0247 5.10293
head 17.6993 -6.1896 0.393007
rclavicle -7.20594e-015 -1.3418e-014
rhumerus -63.6539 14.2045 -63.7383
rradius 56.368
rwrist -6.6638
rhand -26.2543 -13.734
rfingers 7.12502
rthumb 0.300169 -43.7135
lclavicle -7.20594e-015 -1.3418e-014
lhumerus -58.5654 -19.1289 83.4608
lradius 101.169
lwrist -19.7416
lhand -33.9774 25.0605
lfingers 7.12502
lthumb -7.15777 54.9195
rfemur -29.2275 -1.84464 20.4772
rtibia 61.9465
rfoot 355.679 -13.5285
rtoes -11.9896
lfemur -8.85318 -15.426 -24.2729
ltibia 18.2619
lfoot 337.139 15.1039
ltoes -71.3827
405
root 4.52413 16.0092 3.31393 -188.37 -69.9742 -168.587
lowerback 13.8744 0.624078 -5.68736
upperback -6.54574 0.0138115 2.99952
thorax -15.3016 0.764221 6.66147
lowerneck -14.8643 -6.34891 -4.66704
upperneck 38.9851 -13.2181 5.15282
head 17.5743 -6.22897 0.346541
rclavicle -1.98785e-016 -2.61278e-014
rhumerus -63.5873 14.207 -63.951
rradius 53.6622
rwrist -5.7939
rhand -26.4796 -13.6285
rfingers 7.12502
rthumb 0.0825618 -43.6082
lclavicle -1.98785e-016 -2.61278e-014
lhumerus -55.6715 -21.3659 82.8374
lradius 100.739
lwrist -19.337
lhand -34.1591 24.1329
lfingers 7.12502
lthumb -7.33313 53.9859
rfemur -34.4355 -1.01315 20.0843
rtibia 72.5137
rfoot 356.304 -12.4961
rtoes -16.4195
lfemur -7.64002 -16.0125 -24.5971
ltibia 18.1452
lfoot 336.903 15.4343
ltoes -71.338
406
root 4.5359 16.0051 3.33605 -190.52 -70.6084 -167.77
lowerback 15.3685 0.589392 -6.9716
upperback -5.82376 -0.29406 3.43303
thorax -15.3376 0.779597 8.01886
lowerneck -15.3794 -6.2708 -4.20634
upperneck 39.1844 -13.2385 5.06332
head 17.7697 -6.15342 0.197091
rclavicle 8.62228e-015 1.42628e-014
rhumerus -63.3681 14.1139 -64.0985
rradius 50.7491
rwrist -5.32423
rhand -26.8626 -13.6921
rfingers 7.12502
rthumb -0.287411 -43.6717
lclavicle 8.62228e-015 1.42628e-014
lhumerus -52.2872 -23.6746 82.033
lradius 99.9598
lwrist -19.4952
lhand -34.3087 24.7475
lfingers 7.12502
lthumb -7.47751 54.5954
rfemur -39.2433 -0.30485 19.6586
rtibia 86.0471
rfoot 377.464 43.5176
rtoes -21.1699
lfemur -6.21524 -16.0732 -24.9703
ltibia 18.1597
lfoot 336.609 15.2865
ltoes -71.5039
407
root 4.53795 16.0029 3.34475 -193.732 -71.4199 -165.896
lowerback 16.7266 0.475738 -7.89344
upperback -5.08284 -0.656512 3.88972
thorax -15.2193 0.714585 9.22778
lowerneck -15.2016 -6.34066 -4.34576
upperneck 39.2178 -13.6616 5.66928
head 17.8693 -6.28147 0.407042
rclavicle -3.60981e-014 -2.65378e-014
rhumerus -63.4008 13.9471 -64.1668
rradius 48.0881
rwrist -5.11486
rhand -26.5057 -14.2463
rfingers 7.12502
rthumb 0.0572872 -44.226
lclavicle -3.60981e-014 -2.65378e-014
lhumerus -48.5438 -26.1243 80.9624
lradius 99.0191
lwrist -20.0753
lhand -34.3812 25.6372
lfingers 7.12502
lthumb -7.54748 55.4826
rfemur -43.843 0.171753 19.4184
rtibia 88.2829
rfoot 492.411 65.8735
rtoes -23.911
lfemur -4.8268 -15.9464 -25.0082
ltibia 18.3512
lfoot 336.291 14.711
ltoes -71.7335
